# xmcd
#
# Track frame offsets: 
#        150
#        26210
#        48706
#        78074
#        96698
#        125580
#        142216
#        172554
#        199386
#        219114
#        241205
#        263784
#        287174
#        305036
#        332107
#        346952
#
# Disc length: 4783 seconds
#
# Revision: 2
# Processed by: cddbd v1.5.2PL0 Copyright (c) Steve Scherf et al.
# Submitted via: ExactAudioCopy v1.1
#
DISCID=f612ad10
DTITLE=Various Artist - Trail Of The Wolf - vol.01 - Various Of The B
DTITLE=lues  CD1
DYEAR=2016
DGENRE=Blues
TTITLE0=Tab Benoit - Medicine
TTITLE1=Foghat - Born For The Road
TTITLE2=Johnny Gale - Daddy Long Legs
TTITLE3=John Norum - Play Yard Blues
TTITLE4=Dennis Jones - Mr Right
TTITLE5=Terry Quiett Band - Judgment Day
TTITLE6=The Blues Mystery - My First Love
TTITLE7=Bernie Marsden - Funny People
TTITLE8=Roger Cotton - A Long Way Back
TTITLE9=Janiva Magness - Dirty Water
TTITLE10=David Gogo - Time Is Killing Me
TTITLE11=Wayne Perkins - Goin' to Brownsville
TTITLE12=James Otto - The Man That I Am
TTITLE13=Ana Popovic - Bigtown Playboy
TTITLE14=Jonny Lang and The Big Bang - Malted Milk
TTITLE15=Layla Zoe - Glory, Glory, Hallelujah
EXTD=
EXTT0=
EXTT1=
EXTT2=
EXTT3=
EXTT4=
EXTT5=
EXTT6=
EXTT7=
EXTT8=
EXTT9=
EXTT10=
EXTT11=
EXTT12=
EXTT13=
EXTT14=
EXTT15=
PLAYORDER=
